<svg id="Layer_1" data-name="Layer 1" xmlns="http://www.w3.org/2000/svg" xmlns:xlink="http://www.w3.org/1999/xlink" viewBox="0 0 564.79 505.4" width="406" height="306" class="illustration styles_illustrationTablet__1DWOa"><defs><linearGradient id="linear-gradient" x1="317.51" y1="331.28" x2="413.59" y2="608.48" gradientUnits="userSpaceOnUse"><stop offset="0" stop-color="#fff" stop-opacity="0"></stop><stop offset="0.95" stop-color="#fff"></stop></linearGradient><linearGradient id="linear-gradient-2" x1="339.5" y1="477.35" x2="-203.85" y2="-102.45" gradientUnits="userSpaceOnUse"><stop offset="0" stop-color="#010101" stop-opacity="0"></stop><stop offset="0.95" stop-color="#010101"></stop></linearGradient><linearGradient id="linear-gradient-3" x1="402.96" y1="379.73" x2="372.59" y2="272.05" xlink:href="#linear-gradient-2"></linearGradient><linearGradient id="linear-gradient-4" x1="299.8" y1="184.33" x2="382.63" y2="394.72" gradientUnits="userSpaceOnUse"><stop offset="0" stop-color="#010101" stop-opacity="0"></stop><stop offset="0.24" stop-color="#010101" stop-opacity="0.24"></stop><stop offset="0.95" stop-color="#010101"></stop></linearGradient><linearGradient id="linear-gradient-5" x1="452.47" y1="157.35" x2="294.18" y2="282.51" xlink:href="#linear-gradient-4"></linearGradient><linearGradient id="linear-gradient-6" x1="378.15" y1="153.87" x2="332.59" y2="90.92" xlink:href="#linear-gradient-4"></linearGradient><linearGradient id="linear-gradient-7" x1="257.23" y1="271.84" x2="316.61" y2="182.09" xlink:href="#linear-gradient-2"></linearGradient><linearGradient id="linear-gradient-8" x1="277.17" y1="221.39" x2="230.78" y2="348.67" xlink:href="#linear-gradient-2"></linearGradient><linearGradient id="linear-gradient-9" x1="384.8" y1="199.3" x2="687.4" y2="273.66" xlink:href="#linear-gradient-2"></linearGradient><linearGradient id="linear-gradient-10" x1="405.48" y1="190.07" x2="238.27" y2="355.82" xlink:href="#linear-gradient-2"></linearGradient><linearGradient id="linear-gradient-11" x1="391.99" y1="294.63" x2="99.28" y2="225.04" xlink:href="#linear-gradient-2"></linearGradient><linearGradient id="linear-gradient-12" x1="337.19" y1="117.44" x2="354.52" y2="108.67" xlink:href="#linear-gradient-4"></linearGradient><linearGradient id="linear-gradient-13" x1="275.26" y1="421.35" x2="326.06" y2="454.48" xlink:href="#linear-gradient-2"></linearGradient><linearGradient id="linear-gradient-14" x1="276.99" y1="432.46" x2="300.19" y2="513.63" xlink:href="#linear-gradient-2"></linearGradient><linearGradient id="linear-gradient-15" x1="391.46" y1="361.88" x2="492.24" y2="385.63" xlink:href="#linear-gradient-2"></linearGradient><linearGradient id="linear-gradient-16" x1="317.51" y1="299.34" x2="437.34" y2="341.31" xlink:href="#linear-gradient-2"></linearGradient><linearGradient id="linear-gradient-17" x1="366.59" y1="248.86" x2="629.63" y2="542.98" xlink:href="#linear-gradient-2"></linearGradient></defs><title>Basketball</title><path d="M609.17,401.2c-.86,13.22-6.23,25.81-13.06,37.18-25,41.62-71.82,69.27-120.38,71.16-34.9,1.33-69-9.73-103.78-13.26-55.89-5.73-113,8-168.23-2.47-50.09-9.46-94.49-40.72-123.59-82.45a211.64,211.64,0,0,1-14-23c-.74-1.49-1.53-3-2.27-4.54a187.36,187.36,0,0,1-19.34-77.94C43.69,264.35,57.34,221.28,87.7,193c26.43-24.63,62.32-36,92.8-55.3A201.52,201.52,0,0,0,237,83.76c14.2-20.2,25.1-43.5,44.44-58.87,21.69-17.22,51-21.85,78.64-20.4C434.2,8.34,527.55,58.86,562.69,126c34.48,65.85,13.46,147.44,34.09,218.83,3.76,12.94,8.9,25.81,11.22,39A69.44,69.44,0,0,1,609.17,401.2Z" transform="translate(-44.51 -4.24)" fill="#665C54" opacity="0.24" style="isolation: isolate;"></path><path d="M609.17,401.2c-.86,13.22-6.23,25.81-13.06,37.18-25,41.62-71.82,69.27-120.38,71.16-34.9,1.33-69-9.73-103.78-13.26-55.89-5.73-113,8-168.23-2.47-50.09-9.46-94.49-40.72-123.59-82.45l-14-23-2.74-4.54H608A69.44,69.44,0,0,1,609.17,401.2Z" transform="translate(-44.51 -4.24)" fill="#665C54"></path><path d="M609.17,401.2c-.86,13.22-6.23,25.81-13.06,37.18-25,41.62-71.82,69.27-120.38,71.16-34.9,1.33-69-9.73-103.78-13.26-55.89-5.73-113,8-168.23-2.47-50.09-9.46-94.49-40.72-123.59-82.45l-14-23-2.74-4.54H608A69.44,69.44,0,0,1,609.17,401.2Z" transform="translate(-44.51 -4.24)" fill="url(#linear-gradient)"></path><path d="M214.51,437.61a7.2,7.2,0,0,1-3.51-1.88c-1.78-2.12-.52-5.42,1.28-7.53s4.18-4,4.75-6.72q-30.24-8.34-61.17-13.8c4-6.83,13-8.47,20.86-9.13,14.44-1.21,28.94-1.51,43.43-1.8l74.71-1.52c3.32-.07,6.75-.11,9.78,1.24s5.2,3.86,8,5.54c6.4,3.86,14.48,2.74,21.9,1.85a226.77,226.77,0,0,1,54.55.08c-6.9,6.55-16.84,8.72-26.32,9.43s-19.15.25-28.34,2.71c-4.84,1.3-9.51,3.39-14.5,3.86-6.76.63-13.37-1.77-20-3.35a84,84,0,0,0-27.05-2c-1.84.17-3.92.54-4.93,2.08-1.48,2.28.46,5.35,2.83,6.67s5.22,1.77,7.33,3.49c11.79,9.61-9.47,23.88-18.13,24.25C246,451.71,227.71,441.73,214.51,437.61Z" transform="translate(-44.51 -4.24)" fill="url(#linear-gradient-2)"></path><path d="M409.41,378.37c-1.92,3.92-4.2,7.89-7.85,10.28a11.27,11.27,0,0,1-4.86,1.76,8.39,8.39,0,0,1-7.18-2.23c-2.86-3-2.67-7.61-2.86-11.73-.28-4.9-2.75-9.45-3.1-14.12-.28-3.84,2.75-6.94,4-10.51,2-5.41,2.82-12,7.65-15.06,3.37-2.16,8-1.85,11.41.11a12.9,12.9,0,0,1,2.51,1.89,19.22,19.22,0,0,1,4.79,7.33C417.92,356.56,414.35,368.33,409.41,378.37Z" transform="translate(-44.51 -4.24)" fill="#fff"></path><path d="M405.13,340.48c.85,2.32-.12,4.9-1.45,7s-3,4-3.88,6.27c-1,2.69-.71,5.66-.58,8.53.22,4.75-.12,9.89-3.13,13.58-1.76,2.15-4.52,4.22-4,7-2.23-3.53-.65-8.36-2.31-12.19-1-2.39-3.24-4.12-4.36-6.47-1.64-3.42-.76-7.45.16-11.13s1.9-7.33,4.66-9.73c1.43-1.23,3-2.2,4.41-3.47,1-.93,2.09-2.19,3.43-2.64A6.07,6.07,0,0,1,405.13,340.48Z" transform="translate(-44.51 -4.24)" fill="url(#linear-gradient-3)"></path><path d="M504.56,285c-1.37-2.12-2.7-4.28-4.07-6.39-.44-.71-1-1.49-1.81-1.61a2,2,0,0,0-2.08,1.65,7.1,7.1,0,0,0,.16,2.86,25.48,25.48,0,0,1,.27,5.73c-.11,1.68-.66,3.72-2.27,4.23-2.16-3.18-1.88-7.41-3.37-10.94a5.49,5.49,0,0,0-1.73-2.43,2.63,2.63,0,0,0-2.82-.16,2.87,2.87,0,0,0-.87,2.82,9.82,9.82,0,0,0,1.38,2.79,40.62,40.62,0,0,1,4.31,9.57c.31,1,.43,2.35-.55,2.82a2,2,0,0,1-1.73-.27,11.37,11.37,0,0,1-4-4.39,90.29,90.29,0,0,1-5.17-10.83c-1.53,1.1-2.32,2.94-3,4.75-1.3,3.41-2.48,6.9-3.53,10.39-.36,1.18-.87,2.55-2.08,2.79a2.36,2.36,0,0,1-2.36-1.57c-.35-.95.59-3.46.71-4.48.43-4.55,1.76-10.31,2.2-14.9-4.28.67-7.5,4.71-11.73,5.61a3.72,3.72,0,0,1,0-5.77c1.49-1.17,3.29-1.88,4.9-3,4.71-3.21,6.63-9.1,8.32-14.55,2.35-7.88.23-17.49-2.51-25.22-1.22-3.33-2.95-6.47-4.12-9.81A30.35,30.35,0,0,1,465.22,213a4,4,0,0,0-.47-2.66,3.32,3.32,0,0,0-1.57-.94c-9.33-3.77-18.63-7.5-28-11.26.11,10.94-.94,20.87-1.92,31.73-.51,5.57-1.26,11.41-4.83,15.69-5,6-13.88,6.9-21.69,6.47A107.32,107.32,0,0,1,386,248.86c-5.72-1.49-11.57-3.61-15.53-7.93-3.61-4-5.3-9.29-6.59-14.47-1.92-7.53-3.37-15.18-6.28-22.4-2.62-6.55-6.62-12.78-12.35-16.82-.55-.4-1.14-.79-1.73-1.14-1.1-.63-.11,8.39-1.17,7.73-9.5-6-11.71,6-12.79,7.29-10.62,12.5-32.86,40.68-36.46,39.34-4.34-1.61,4-1.65-.41-1.8a17.57,17.57,0,0,1-5.69-1.57c-6-2.39-11.92-4.79-17.88-7.14,1.29-1.1,17.65-14.4,18.9-15.49C309,196.34,300.68,170.09,333,146.8c12-8.59,30-11.22,44.71-11.18A56.28,56.28,0,0,1,419,140.21a84,84,0,0,1,13.26,9.21c10.62,8.79,20.08,18.91,29.49,29l13.53,14.47c2.32,2.47,12.79,11.77,14.36,15.77s1.41,8.47,1.18,12.79c-.59,11.49-1.22,22.94-1.81,34.44a14.62,14.62,0,0,0,3.77,4.55c5.21,4.51,8.39,10.86,11.49,17a13.22,13.22,0,0,1,1.41,3.8A4.36,4.36,0,0,1,504.56,285Z" transform="translate(-44.51 -4.24)" fill="#c58067"></path><path d="M345.2,187.24c-.55-.4-1.14-.79-1.73-1.14-1.1-.63-.11,8.39-1.17,7.73-9.5-6-11.57,6.15-12.79,7.29-11.65,10.71-26.95,36.16-35.62,38.64-2.23.62-5.13-1.69-7-2.4,0,0,0,0-.07,0-2.12.71-4.44.2-6.56-.55a30.51,30.51,0,0,1-7.84-4.23A2.9,2.9,0,0,1,271,230.7a2.82,2.82,0,0,1,.55-1.65,12.39,12.39,0,0,1,4-4.87c2.82-1.76,6.43-1.17,9.69-.7,2,.27,8.15-.08,10.94,1.45a73.43,73.43,0,0,0,23.3-25.77c2.55-4.75,4.71-10,8.82-13.65,2.55-2.28,9.42-8.08,13.06-7.88C346,177.86,346.45,182.29,345.2,187.24Z" transform="translate(-44.51 -4.24)" fill="url(#linear-gradient-4)"></path><path d="M440.19,177.94a5,5,0,0,0-1.83-2.23c-1.61-.82-17.47-.6-19.54-8.24-2.33.25-3.21,3.11-3.7,5.4s-1.88,5.09-4.2,4.77a4.32,4.32,0,0,1-2-1c-5.66-4.64-6.92-12.66-7.79-19.93q-1-8.74-2.09-17.49A113.94,113.94,0,0,0,395.65,181c.39,3.73,1.05,7.63,3.43,10.52,4.5,5.47,12.77,5,19.85,5a82.63,82.63,0,0,1,28.89,5.27c8.28,3.09,16.06,11.51,21.7,1C457.27,197,446.92,190.35,440.19,177.94Z" transform="translate(-44.51 -4.24)" fill="url(#linear-gradient-5)"></path><path d="M351,144.32a5.76,5.76,0,0,0,1,2.46,5.15,5.15,0,0,0,1.89,1.26c4.68,2.15,10.32,3,14.94.71a6.58,6.58,0,0,0,2.77-2.34,8.34,8.34,0,0,0,.9-3.8c.25-3.56.28-7.29-1.28-10.5a18.64,18.64,0,0,0-4.94-5.82,54.32,54.32,0,0,0-12.7-8.09c-2.36-1.07-6.27-2.56-8.6-.57-2,1.75-.7,3.4.08,5.56A200.63,200.63,0,0,1,351,144.32Z" transform="translate(-44.51 -4.24)" fill="#c58067"></path><path d="M377.77,135.63s5.28,15.79-1.62,18.28S353,136.79,353,136.79Z" transform="translate(-44.51 -4.24)" fill="url(#linear-gradient-6)"></path><path d="M345.87,90.3c-5.06,11.2-2.6,24.25.81,36.06,1.48,5.11,8.3,14.66,14,15.58,8,1.29,20-4.33,21.9-11.23,1.36-5,1.49-17.78,2.29-22.89a34.61,34.61,0,0,0,.49-9c-.95-8.36-7.09-15.09-13.14-20.94a13.34,13.34,0,0,0-3.2-2.51,11,11,0,0,0-6.83-.53,22.94,22.94,0,0,0-12.57,6.53,17.39,17.39,0,0,0-4.84,13.11" transform="translate(-44.51 -4.24)" fill="#c58067"></path><path d="M339.39,108.23a3.58,3.58,0,0,0-3.11,3.39,7.11,7.11,0,0,0,1.66,4.64,29.37,29.37,0,0,0,3,3.37,8.76,8.76,0,0,0,1.85,1.54,3,3,0,0,0,2.33.34.65.65,0,0,0,.32-.19.78.78,0,0,0,.12-.38,17.4,17.4,0,0,0-1-8.81C343.8,110.34,341.45,108.17,339.39,108.23Z" transform="translate(-44.51 -4.24)" fill="#c58067"></path><path d="M344.85,114.15c1.48-2,.7-8,.63-10.42a40,40,0,0,1,.8-8.94c.18-.88.56-1.93,1.45-2.09,1.09-.2,1.86,1.1,2.93,1.43a3.75,3.75,0,0,0,1.85-.06c8.93-1.8,18.18-1.52,27.22-.33,1.69.23,3.56.44,4.95-.55,1.09-.77,1.62-2.09,2.3-3.24a11.12,11.12,0,0,1,4.44-4.16c.54-.28,1.18-.6,1.29-1.2a1.39,1.39,0,0,0-.15-.82c-.88-1.85-3.42-2.1-5-3.44-.61-.53-1.05-1.23-1.65-1.77a16.73,16.73,0,0,0-3.5-1.93c-2.13-1.15-3.78-3.07-5.95-4.15a16.56,16.56,0,0,0-6.92-1.3,114.37,114.37,0,0,0-21.79,1.43,9.25,9.25,0,0,0-4.22,1.45c-1.83,1.4-2.4,3.85-2.78,6.11a3.24,3.24,0,0,1-1,2.14,10,10,0,0,1-1.62.66,3.93,3.93,0,0,0-1.73,2.6c-1.07,3.82-.46,7.89.19,11.81q.54,3.3,1.13,6.6c.25,1.42.55,3.51,1.79,4.23.73.43,1.89.68,2.59,1.14a7.32,7.32,0,0,1,1.52,1.66c.52.61.4,3.44,1.14,3.14" transform="translate(-44.51 -4.24)" fill="#606161"></path><path d="M311.94,284.3c-4.08,4.27-8.1,8.77-10.49,14.18s-3,11.72-3.87,17.72a10.56,10.56,0,0,1-1.71,5.14c-.84,1.06-2.05,1.78-2.95,2.79a12.71,12.71,0,0,0-2.36,5.15,253.78,253.78,0,0,0-9.44,74.3c.17,7.8.48,16.33-4.26,22.52-5,6.52-15.1,9.79-16,17.95a31.08,31.08,0,0,0,32.42-3.36,14.22,14.22,0,0,0,4.61-5.61c1.94-4.87-.54-10.25-1.42-15.42-2.25-13.14,5.88-25.48,11.21-37.71a95,95,0,0,0,7.85-34.65c.07-2.13.1-4.38,1.22-6.19a12.82,12.82,0,0,1,3.59-3.32c20.09-14.65,30.32-39.72,49.76-55.22l-22.58,58.9c-2.06,5.39-4.14,10.82-5.11,16.5-.88,5.16-.67,11,2.7,15,4.86,5.74,14.14,5.21,20.8,1.71s11.85-9.26,18.24-13.24l4.67,5.3c7.79-8.51,6.43-21.54,7.15-33.05a16.66,16.66,0,0,1,.85-4.87,18.56,18.56,0,0,1,2.91-4.64c9.69-12.44,19.91-24.78,26-39.31s7.64-31.94-.15-45.65a9.94,9.94,0,0,0-3.14-3.71,11.24,11.24,0,0,0-5-1.24,195.16,195.16,0,0,0-33.41.05c-10.5.91-14.62,3.12-22.87,8.87C343.53,255.49,326.88,268.67,311.94,284.3Z" transform="translate(-44.51 -4.24)" fill="#c58067"></path><circle cx="221.22" cy="254.61" r="35.42" fill="#665C54"></circle><circle cx="221.22" cy="254.61" r="35.42" fill="#665C54"></circle><path d="M301.23,258.86a35.41,35.41,0,0,1-12.87,27.34,36.41,36.41,0,0,1-5.64,3.8c-.51.28-1,.55-1.53.79h0a35.31,35.31,0,0,1-15.34,3.49c-.74,0-1.45,0-2.16-.08s-1.21-.08-1.8-.16a35.23,35.23,0,0,1-15.34-5.49c-.27-.16-.59-.35-.86-.55a36.15,36.15,0,0,1-11.06-12.39c-.2-.4-.39-.75-.59-1.14v0a35.16,35.16,0,0,1-3.61-15.57c0-1,0-2,.12-2.9a36.28,36.28,0,0,1,.59-4.2,34,34,0,0,1,4.08-10.67,35.6,35.6,0,0,1,23.33-16.91c.48-.07,1-.19,1.5-.27a35.84,35.84,0,0,1,5.8-.47A35.32,35.32,0,0,1,286,229.71c.55.4,1.1.79,1.65,1.22a35.41,35.41,0,0,1,12.2,18c.11.4.23.79.35,1.18A37.5,37.5,0,0,1,301.23,258.86Z" transform="translate(-44.51 -4.24)" fill="url(#linear-gradient-7)"></path><path d="M293.15,268.43a34.92,34.92,0,0,1-4.79,17.77,35.44,35.44,0,0,1-58-27.34,34.92,34.92,0,0,1,4.79-17.77,35.44,35.44,0,0,1,58,27.34Z" transform="translate(-44.51 -4.24)" fill="url(#linear-gradient-8)"></path><path d="M263.65,294.2c-.62,0-1.21-.08-1.8-.16a50.11,50.11,0,0,1-9.49-10.79,4.11,4.11,0,0,1-.59-.9,41.7,41.7,0,0,1-3.14-6.08,9.72,9.72,0,0,1-.39-1,39.67,39.67,0,0,1-2.47-10,38.74,38.74,0,0,1-.24-4.27,10.09,10.09,0,0,1,0-1.1c.24-15.26,8.24-28.91,13-35.66.48-.07,1-.19,1.5-.27-4.52,6.28-13.11,20.12-13.42,35.69v1.1a40.36,40.36,0,0,0,.24,4.39,37.92,37.92,0,0,0,2.51,10.08c.11.36.27.67.39,1a43.08,43.08,0,0,0,3,5.73l.59.94A54.28,54.28,0,0,0,263.65,294.2Z" transform="translate(-44.51 -4.24)" fill="#fff"></path><path d="M287.62,230.93c-8.32-1.06-14.08,5.77-20.63,13.53-5.85,7-11.89,14.12-20.4,16.24a5.06,5.06,0,0,1-1.06.24,21.13,21.13,0,0,1-4.2.43H241c-4.47,0-7.65-1.26-9.45-3.53a7.63,7.63,0,0,1-1.06-1.88,36.28,36.28,0,0,1,.59-4.2h.08a7,7,0,0,0,1.21,5.41c1.61,2,4.51,3.1,8.67,3.14h.27a18.26,18.26,0,0,0,4.2-.47,4.13,4.13,0,0,0,1.06-.24c8.08-2.15,13.93-9.06,19.61-15.8,6-7.22,11.81-14.09,19.77-14.09C286.52,230.11,287.07,230.5,287.62,230.93Z" transform="translate(-44.51 -4.24)" fill="#fff"></path><path d="M300.17,250.11c-6.9,7.22-25.5,24-50.44,26.08a9.48,9.48,0,0,1-1.1.08c-1.37.12-2.75.16-4.16.16a58.1,58.1,0,0,1-9.88-.82c-.2-.4-.39-.75-.59-1.14a58.78,58.78,0,0,0,14.24.78c.35,0,.74,0,1.1-.08,25.3-2,44-19.37,50.48-26.24C299.93,249.33,300.05,249.72,300.17,250.11Z" transform="translate(-44.51 -4.24)" fill="#fff"></path><path d="M282.72,290c-.51.28-1,.55-1.53.79h0a38.39,38.39,0,0,1-9.77-3.81,49.09,49.09,0,0,0-10.79-4.35,12.4,12.4,0,0,0-7.25.23,8,8,0,0,0-1,.39,14.23,14.23,0,0,0-5.85,5.3c-.27-.16-.59-.35-.86-.55a15.45,15.45,0,0,1,6.12-5.65c.31-.11.63-.27,1-.43a13.26,13.26,0,0,1,8.12-.31,53,53,0,0,1,11,4.43C275.54,287.84,278.87,289.57,282.72,290Z" transform="translate(-44.51 -4.24)" fill="#fff"></path><path d="M257.31,223.49a10.82,10.82,0,0,0-1.75,1.7,44.51,44.51,0,0,0-5.37,6.88,14.92,14.92,0,0,0-2.3,8.31.92.92,0,0,0,.14.52c.31.37.91.06,1.24-.29a31.31,31.31,0,0,0,2.39-3.2,31.28,31.28,0,0,1,3.09-3.42,50.82,50.82,0,0,0,.29,7.3c.09.81.29,1.75,1,2.1a1.66,1.66,0,0,0,1.85-.51,4.21,4.21,0,0,0,.86-1.85c.79-2.9,1.16-6,2.69-8.56a66.69,66.69,0,0,0,.59,7.73,4.44,4.44,0,0,0,.59,2,1.6,1.6,0,0,0,1.79.71c.94-.36,1-1.63,1-2.64a24.89,24.89,0,0,1,.82-7l2.05,6.35a5.19,5.19,0,0,0,1.16,2.26,1.8,1.8,0,0,0,2.32.26,2.85,2.85,0,0,0,.57-2.34,20,20,0,0,1,1.85-9.16c.41-.88,1-1.82,1.95-2,1.49-.32,2.61,1.3,4,1.88a6.32,6.32,0,0,0,2.49.3l2.6,0a1.06,1.06,0,0,0,.56-.11.92.92,0,0,0,.2-1.11,3.63,3.63,0,0,0-1.86-1.84,24.38,24.38,0,0,0-2.52-.91c-1.61-.59-3.08-1.51-4.63-2.25a22.47,22.47,0,0,0-8.08-2.1c-1.37-.1-2.75.14-4.11,0a26.52,26.52,0,0,0-3.34-.23A7.8,7.8,0,0,0,257.31,223.49Z" transform="translate(-44.51 -4.24)" fill="#c58067"></path><path d="M439.34,215.63c-.16,5.69-.32,11.42-.48,17.14a33.26,33.26,0,0,1-.78,6.91s0,.08,0,.12a9.63,9.63,0,0,1-3.22,5.6,2.26,2.26,0,0,1-.51.4,11.23,11.23,0,0,1-6.39,1.64,29.62,29.62,0,0,1-3.29-.23c-.67-.08-1.34-.16-2-.28-12.79-1.68-25.22-6.08-38.09-6.27-6.16-.08-12.32.78-18.4,0s-12.35-3.77-15.06-9.26c-3.41-7-.66-14-3.1-21.3-1.57-4.74-4.82-10.23-5.68-15.1-.47-2.59,0-5.25,0-7.88a28.67,28.67,0,0,0-.91-7.34A50.58,50.58,0,0,0,335,165.27c-2.43-4-9.18-10.24-8.67-15.14.39-3.8,4.91-6.51,8.2-7.33,5.18-1.34,7.61.66,10.2,4.82a81.5,81.5,0,0,0,13.73,17c3.88,3.53,8.86,6.87,14,5.73,3.69-.79,6.51-3.73,8.82-6.67a21.42,21.42,0,0,0,3.61-6c.94-2.78.91-5.77.94-8.67a117.6,117.6,0,0,1,.95-12.86,2.9,2.9,0,0,1,3.6-3.1c3.26,0,6.52.12,9.77.31,1.18,17.26,5.45,29.93,10.63,39.23,8.9,16.08,20.48,22,23.06,24.35C437.92,200.61,439.49,210.18,439.34,215.63Z" transform="translate(-44.51 -4.24)" fill="#665C54"></path><path d="M439.34,215.63c-.16,5.69-.32,11.42-.48,17.14a33.26,33.26,0,0,1-.78,6.91s0,.08,0,.12a22.27,22.27,0,0,1-3.22,5.6c-2,2.36-4.27,3.42-6.9,2a12.12,12.12,0,0,1-4.16-4.08c-6.9-10,.12-27.65-3.49-39.22-2-6.55-6.23-12.16-9.72-18.08s-6.4-12.67-5.34-19.46c1.81,2.08,3.65,4.08,5.57,6,8.9,16.08,20.48,22,23.06,24.35C437.92,200.61,439.49,210.18,439.34,215.63Z" transform="translate(-44.51 -4.24)" fill="url(#linear-gradient-9)"></path><path d="M422.63,246.93c-12.79-1.68-25.22-6.08-38.09-6.27-6.16-.08-12.32.78-18.4,0s-12.35-3.77-15.06-9.26c-3.41-7-.66-14-3.1-21.3-1.57-4.74-4.82-10.23-5.68-15.1-.47-2.59,0-5.25,0-7.88a28.67,28.67,0,0,0-.91-7.34,10.12,10.12,0,0,1,6.24,5.1c1.14,2.36,1.33,5.06,2.28,7.53,2.27,6,8.55,9.38,14.63,11.34a25.17,25.17,0,0,1,6.66,2.67c2,1.33,3.61,3.61,3.42,6a74.49,74.49,0,0,1-13.85-.16c.9,2.71,3.45,4.63,6.16,5.53a28,28,0,0,0,8.47,1c6.51.16,13,.28,19.53.43,5.1.08,10.48.24,14.91,2.75,6.75,3.76,10.55,12.94,12.67,20C423.21,244.31,423.18,245.91,422.63,246.93Z" transform="translate(-44.51 -4.24)" fill="url(#linear-gradient-10)"></path><path d="M429.75,280.73c-5,11.45-12.63,21.56-18.78,32.46a137,137,0,0,0-8.34,17.62c-1.32,3.4-2.7,7.12-5.79,9.05a14.54,14.54,0,0,1-6.09,1.75,76.52,76.52,0,0,1-48.1-10.3,105.93,105.93,0,0,0,10.77-24.14,132.39,132.39,0,0,0-31,30.46c-6.73-1.65-10.83-8.17-15.42-13.34a50.61,50.61,0,0,0-21.9-14.39c-1.8-.59-4-1.45-4.21-3.33a4.62,4.62,0,0,1,1.33-3.27c5.34-6.81,12.52-11.93,18.41-18.28,8.41-9,14-20.41,22.49-29.41,5.45-5.8,12-10.5,18.43-15.15a29.77,29.77,0,0,1,8.13-4.64c3.83-1.22,8-.85,11.95-.45,20.69,2.06,42.34,3.18,62.72,7.41C441.07,246.27,434.73,269.38,429.75,280.73Z" transform="translate(-44.51 -4.24)" fill="#665C54"></path><path d="M429.77,280.74c-5.06,11.46-12.64,21.54-18.79,32.44a142.35,142.35,0,0,0-8.36,17.61c-1.33,3.42-2.7,7.14-5.8,9.06a14.5,14.5,0,0,1-6.08,1.77c-1.49.2-3,.31-4.51.39a76.89,76.89,0,0,1-43.58-10.71,107.32,107.32,0,0,0,10.79-24.12,131.48,131.48,0,0,0-31.07,30.44c-6.71-1.65-10.82-8.16-15.41-13.34a51.05,51.05,0,0,0-21.89-14.39c-1.81-.59-4-1.45-4.24-3.34a4.65,4.65,0,0,1,1.34-3.25c5.33-6.83,12.51-11.93,18.43-18.28,8.4-9.06,14-20.4,22.48-29.42,5.45-5.8,12-10.47,18.43-15.14a29.46,29.46,0,0,1,8.12-4.63c3.85-1.25,8-.86,12-.47,20.52,2.08,42,3.18,62.25,7.34a1.85,1.85,0,0,1,.47.08C441.06,246.27,434.75,269.37,429.77,280.74Z" transform="translate(-44.51 -4.24)" fill="url(#linear-gradient-11)"></path><path d="M301.07,439.52c-3.41,6.28-9.88,10.47-16.71,12.55s-14.08,2.2-21.22,2c-2.66,0-5.49-.19-7.65-1.68a8.11,8.11,0,0,1-3.21-6.48,10.75,10.75,0,0,1,.78-4.74c1.61-3.85,4.83-6.71,8-9.34s6.55-5.21,8.59-8.82c1.06-1.85,1.69-3.92,2.87-5.69s2.94-3.37,5.06-3.41c2.51,0,4.47,2,6.39,3.61s4.79,2.9,6.82,1.45a8.11,8.11,0,0,0,1.89-2.28c1.14-1.64,4.59-5.21,7-4.55,2.67.79,2.9,4.95,3.37,7.3a41.32,41.32,0,0,1,.79,5.92A26.28,26.28,0,0,1,301.07,439.52Z" transform="translate(-44.51 -4.24)" fill="#fff"></path><path d="M265.81,294.28" transform="translate(-44.51 -4.24)" fill="none" stroke="#fff" stroke-miterlimit="10" stroke-width="0.98"></path><path d="M261.48,222.25" transform="translate(-44.51 -4.24)" fill="none" stroke="#fff" stroke-miterlimit="10" stroke-width="0.98"></path><path d="M341.91,114c-.06-.42,0-.85-.06-1.27a2.53,2.53,0,0,0-.46-1,3.71,3.71,0,0,0-1.38-1.1.54.54,0,0,0-.3-.06.38.38,0,0,0-.24.15,2,2,0,0,0-.44,1.37,9.61,9.61,0,0,0,1,3.73,6.56,6.56,0,0,0,2.71,3.58,1.53,1.53,0,0,0,1.36.12,1.34,1.34,0,0,0,.53-1.6C344.09,116.4,342.13,115.68,341.91,114Z" transform="translate(-44.51 -4.24)" fill="url(#linear-gradient-12)"></path><path d="M289.74,421.91c-1.79,1.6-3.85,2.84-5.75,4.3a31.59,31.59,0,0,0-4.86,4.6c-1.72,2-3.33,4.36-5.8,5.32l7.33-9.08a11.26,11.26,0,0,0,1.61-2.39,9,9,0,0,0,.39-5,2.13,2.13,0,0,1,0-.94,1.55,1.55,0,0,1,1.76-.86c.71.09,1.36.44,2,.58,1.55.3,5.23-2.4,6.07-1.83C294.2,417.71,290.75,421,289.74,421.91Z" transform="translate(-44.51 -4.24)" fill="url(#linear-gradient-13)"></path><path d="M301.07,439.52c-3.41,6.28-9.88,10.47-16.71,12.55s-14.08,2.2-21.22,2c-2.66,0-5.49-.19-7.65-1.68a8.11,8.11,0,0,1-3.21-6.48,11.76,11.76,0,0,1,2.9-.19c7.53.39,15.14.15,22.44-1.92,8.51-2.44,16.51-7.3,21.49-14.6a13.05,13.05,0,0,1,2.55-3.05,4.09,4.09,0,0,1,2.2-.79A26.28,26.28,0,0,1,301.07,439.52Z" transform="translate(-44.51 -4.24)" fill="url(#linear-gradient-14)"></path><path d="M409.41,378.37c-1.92,3.92-4.2,7.89-7.85,10.28a11.27,11.27,0,0,1-4.86,1.76c-.31-1.13.35-2.66,1.06-3.8,7.29-11.73,13.33-25.57,10.43-39.07-.59-2.55-3.17-8.47,1-8.78a19.22,19.22,0,0,1,4.79,7.33C417.92,356.56,414.35,368.33,409.41,378.37Z" transform="translate(-44.51 -4.24)" fill="url(#linear-gradient-15)"></path><path d="M358.3,275.42c-16.44,15.08-32.9,30.17-48.12,46.48a5.18,5.18,0,0,0-1.8,3.32,5,5,0,0,0,1.39,2.92,56,56,0,0,0,11.46,10.7c-.47-.33,26.15-26.75,28.57-29.06C357.59,302.3,358.49,285.64,358.3,275.42Z" transform="translate(-44.51 -4.24)" fill="url(#linear-gradient-16)"></path><path d="M429.77,280.74c-5.06,11.46-12.64,21.54-18.79,32.44a142.35,142.35,0,0,0-8.36,17.61c-1.33,3.42-2.7,7.14-5.8,9.06a14.5,14.5,0,0,1-6.08,1.77c-1.49.2-3,.31-4.51.39a17.38,17.38,0,0,1-3.49-1.06A3.52,3.52,0,0,1,381,339.7c-.67-.9-.47-2.16-.27-3.26a49.61,49.61,0,0,1,10.08-21.1c3.88-4.75,8.7-8.83,11.8-14.2,2-3.53,3.22-7.53,4.67-11.37,5.14-13.5,11.92-25.15,13.65-39.66.55-4.63.82-7.29,2.94-7.41a1.85,1.85,0,0,1,.47.08C441.06,246.27,434.75,269.37,429.77,280.74Z" transform="translate(-44.51 -4.24)" fill="url(#linear-gradient-17)"></path><path d="M389.34,133.43l.1,21.1c0,4.26,0,8.74-2.11,12.45a22.57,22.57,0,0,1-4.73,5.41,10.59,10.59,0,0,1-3,2.12,10.31,10.31,0,0,1-3.32.59,70.94,70.94,0,0,1-10.51-.18,16.5,16.5,0,0,1-4.72-.95c-2.62-1-4.64-3.21-6.36-5.46-6.5-8.52-10.24-19.36-18.66-26" transform="translate(-44.51 -4.24)" fill="none" stroke="#fff" stroke-miterlimit="10" stroke-width="0.98"></path><path d="M396.22,132.74s1.1,45.65,29.45,58.9" transform="translate(-44.51 -4.24)" fill="none" stroke="#fff" stroke-miterlimit="10" stroke-width="0.98"></path><path d="M327,147.83s16.84,21.26,17.67,29.54-1.11,20.43-1.11,20.43" transform="translate(-44.51 -4.24)" fill="none" stroke="#fff" stroke-miterlimit="10" stroke-width="0.98"></path><path d="M282.17,303.3s20.17,3.56,26.43,11.29,16.57,19.15,16.57,19.15" transform="translate(-44.51 -4.24)" fill="none" stroke="#fff" stroke-miterlimit="10" stroke-width="0.98"></path><path d="M346.89,325.27s12.14,7,23.56,7.36,32.17-1.84,32.17-1.84" transform="translate(-44.51 -4.24)" fill="none" stroke="#fff" stroke-miterlimit="10" stroke-width="0.98"></path></svg>