<svg width="116" height="115" viewBox="0 0 116 115" fill="none" xmlns="http://www.w3.org/2000/svg">
<path d="M57.55 11.5C32.1465 11.5 11.55 32.0965 11.55 57.5C11.55 79.0548 26.3927 97.0907 46.4027 102.082C46.188 101.461 46.05 100.74 46.05 99.8468V91.9847C44.1832 91.9847 41.0552 91.9847 40.2694 91.9847C37.1222 91.9847 34.3239 90.6315 32.9669 88.1168C31.4604 85.3223 31.1997 81.0482 27.466 78.4338C26.3582 77.5637 27.2015 76.5708 28.478 76.705C30.8355 77.372 32.7905 78.9897 34.6305 81.3893C36.4629 83.7928 37.3254 84.3372 40.7485 84.3372C42.4084 84.3372 44.8924 84.2413 47.2307 83.8733C48.488 80.6802 50.6615 77.74 53.318 76.3523C38 74.7768 30.6899 67.1562 30.6899 56.81C30.6899 52.3557 32.5874 48.047 35.8112 44.4168C34.7532 40.8135 33.4231 33.465 36.2175 30.6667C43.1099 30.6667 47.2767 35.1363 48.2772 36.3438C51.7119 35.167 55.4839 34.5 59.4475 34.5C63.4189 34.5 67.2062 35.167 70.6485 36.3515C71.6375 35.1517 75.8082 30.6667 82.7159 30.6667C85.5219 33.4688 84.1764 40.848 83.1069 44.4437C86.3115 48.0662 88.1976 52.3633 88.1976 56.81C88.1976 67.1485 80.8989 74.7653 65.6039 76.3485C69.8129 78.545 72.8834 84.7167 72.8834 89.3665V99.8468C72.8834 100.246 72.7952 100.533 72.7492 100.874C90.6739 94.5913 103.55 77.5713 103.55 57.5C103.55 32.0965 82.9535 11.5 57.55 11.5Z" fill="black"/>
</svg>
