<svg width="247" height="349" viewBox="0 0 247 349" fill="none" xmlns="http://www.w3.org/2000/svg">
<g clip-path="url(#clip0_24_2459)">
<path d="M113.969 0.518067C110.51 0.845254 109.012 1.11791 108.005 1.58143C107.269 1.90861 106.289 2.18127 105.826 2.18127C104.709 2.18127 103.947 2.59025 100.951 4.88057C97.52 7.4708 96.9754 8.09791 91.1748 16.0867C88.0976 20.3402 86.9538 22.4124 85.0475 27.1293L83.8493 30.1285L83.931 34.6274L84.0127 39.0989L81.4256 41.1166C80.0095 42.2072 78.1576 43.4614 77.3134 43.8977C74.7536 45.2064 70.5597 46.5424 66.0119 47.4422C57.8966 49.0509 51.0067 51.0685 47.0307 53.0589C39.7052 56.6852 29.1934 65.5738 25.8982 70.8906C23.7468 74.3806 18.7633 84.5507 14.869 93.3302L11.4105 101.183L11.9279 101.837C12.4453 102.491 12.4453 102.519 11.3832 105.573C10.7841 107.263 9.9399 110.235 9.50417 112.198C8.63273 116.043 7.54342 119.233 4.46614 127.058C2.85941 131.202 2.34199 132.865 1.68841 136.328C0.462939 142.626 0.16338 145.108 0.16338 149.007C0.136147 152.142 0.217845 152.715 0.762498 153.914C1.49778 155.523 2.75048 156.886 4.08488 157.595C4.6023 157.868 7.73405 160.84 11.0292 164.194L17.0476 170.274L17.5378 175.045C17.7829 177.663 18.2731 180.853 18.5999 182.134C19.0084 183.743 19.199 185.188 19.1718 186.879C19.1445 189.251 19.1173 189.332 17.4833 192.741C16.04 195.713 15.7677 196.503 15.4954 198.63C15.1141 201.902 15.4137 206.374 16.2579 209.945C16.9387 212.754 16.9387 212.89 16.6391 217.252L16.3396 221.724L17.1838 222.787C17.6467 223.387 18.9267 224.478 19.9887 225.187C21.078 225.923 22.7665 227.232 23.7741 228.077L25.5987 229.631L25.4353 231.076C25.2719 232.521 25.2719 232.549 26.5518 233.912C28.0224 235.466 30.1465 236.938 30.9635 236.938C31.263 236.938 31.6988 236.666 31.9166 236.338L32.3251 235.739L33.714 236.884C35.4569 238.356 37.4721 240.537 39.4873 243.237C40.4677 244.491 42.0472 246.072 43.4905 247.217C46.1321 249.344 46.8129 249.726 49.0187 250.435C49.8357 250.68 51.4969 251.444 52.6951 252.071C53.8934 252.725 55.9086 253.625 57.1885 254.116C58.4685 254.579 59.8845 255.152 60.3203 255.343C61.7636 255.97 66.0391 259.623 67.8637 261.777C69.5521 263.768 69.6338 263.959 69.7972 265.594C70.2329 270.039 72.2482 278.246 75.3255 288.061C76.796 292.696 77.259 296.023 76.8232 298.777C76.3331 301.994 76.442 303.875 77.2317 305.648C78.1304 307.665 78.0487 309.328 76.796 315.3L75.8973 319.635L76.3875 322.389C77.2317 327.024 77.2045 328.115 76.2786 331.959C75.6522 334.467 75.4344 336.049 75.4344 337.794C75.4344 339.566 75.1893 341.12 74.5085 343.929C73.8821 346.492 73.6915 347.718 73.9094 347.773C74.0727 347.828 79.3559 347.937 85.6466 348.018C97.4111 348.209 117.4 348.564 130.853 348.891L138.478 349.055L138.968 347.282C139.377 345.728 139.404 345.019 139.132 341.066C138.832 336.458 139.023 333.295 139.84 329.341C140.303 327.187 141.392 320.235 142.018 315.6C142.263 313.8 142.699 311.346 142.971 310.146C143.271 308.947 143.952 305.211 144.496 301.83C145.313 296.677 145.695 295.123 146.811 292.015C148.527 287.271 150.27 281.436 150.596 279.336C150.978 276.964 152.23 261.968 152.258 259.705C152.285 255.833 149.834 250.108 147.002 247.381C146.512 246.917 139.404 241.219 131.207 234.702C119.061 225.023 115.929 222.406 114.159 220.388L111.953 217.907L117.046 216.489C127.748 213.544 134.311 211.472 135.346 210.791C135.918 210.409 137.062 209.345 137.879 208.446C139.213 206.946 139.458 206.51 140.384 203.538C140.929 201.738 141.446 199.503 141.528 198.603C141.664 197.103 141.582 196.749 140.902 195.495C140.03 193.886 139.322 193.477 136.98 193.204C135.782 193.068 134.638 193.204 131.397 193.995C127.558 194.895 127.067 194.949 122.601 194.949C117.209 194.949 116.419 194.731 115.303 193.041L114.622 192.032L115.058 189.223C115.303 187.669 115.521 186.361 115.548 186.333C115.575 186.306 118.053 184.806 121.049 182.98L126.496 179.653L131.534 179.899C137.443 180.171 137.062 180.28 142.454 177.063L145.858 175.045L149.235 175.727C152.802 176.463 154.763 176.572 155.907 176.136C156.588 175.863 156.642 175.781 156.479 174.555C155.989 170.465 155.961 169.32 156.37 169.32C156.86 169.32 158.14 167.575 159.256 165.366C159.719 164.466 161.081 162.667 162.279 161.358C163.777 159.777 164.485 158.795 164.485 158.359C164.485 157.786 163.804 156.559 162.415 154.651C162.116 154.242 162.034 153.942 162.198 153.833C162.361 153.724 167.018 150.697 172.546 147.125C178.074 143.526 186.026 138.291 190.22 135.51C200.541 128.612 208.711 124.249 215.274 122.068C218.596 120.95 221.401 120.241 225.187 119.56C231.232 118.469 231.232 118.469 233.792 115.306C234.691 114.216 235.862 112.825 236.406 112.225L237.414 111.135L238.83 111.462C239.593 111.653 240.519 111.789 240.9 111.789C241.853 111.789 246.428 109.88 246.7 109.362C247.027 108.79 247.027 104.291 246.7 103.037C246.374 101.728 245.557 101.046 243.46 100.338C242.507 100.01 241.308 99.3832 240.818 98.947C240.301 98.5107 239.811 98.1563 239.674 98.1563C239.375 98.1563 238.694 98.9742 238.204 99.9558C237.85 100.61 237.469 100.856 236.189 101.237L234.609 101.674L233.738 100.828C232.703 99.8195 232.294 100.01 232.294 101.537V102.682L230.769 103.173C229.925 103.446 229.217 103.609 229.19 103.555C229.163 103.5 228.918 103.146 228.672 102.71C227.937 101.564 227.175 101.728 226.793 103.146C226.521 104.236 226.358 104.373 225.023 104.891L223.553 105.491L222.545 104.809C221.238 103.909 220.584 104.046 219.903 105.354C219.495 106.145 219.059 106.527 218.27 106.799C217.235 107.154 217.18 107.127 216.336 106.309C215.111 105.109 214.239 105.273 214.048 106.745C213.912 107.726 213.831 107.863 212.905 108.081C212.169 108.272 211.325 108.217 209.8 107.863C208.656 107.617 207.622 107.481 207.54 107.563C207.458 107.672 207.268 108.081 207.104 108.49C206.968 108.899 206.042 110.508 205.116 112.116L203.373 114.979L199.125 117.406C196.756 118.715 186.652 124.604 176.604 130.466C158.385 141.127 151.087 145.326 150.76 145.326C150.678 145.326 150.596 144.317 150.596 143.063C150.596 140.718 150.079 138.509 149.289 137.61C148.227 136.41 145.804 137.528 145.204 139.518C144.85 140.745 144.387 143.99 144.115 147.234L143.924 149.525L135.21 154.787C125.134 160.867 125.679 160.704 122.737 158.522C121.539 157.623 120.504 156.505 119.578 155.141C118.326 153.315 118.19 152.933 118.19 151.651C118.19 149.879 118.544 147.343 119.415 143.008C119.796 141.209 120.586 136.546 121.185 132.647C121.812 128.748 122.356 125.531 122.438 125.449C122.492 125.395 123.228 125.286 124.045 125.204C125.243 125.095 125.624 124.958 125.869 124.495C126.278 123.759 126.278 120.241 125.815 115.47L125.461 111.653L126.305 109.744C128.511 104.645 129.083 102.846 129.083 100.91C129.083 99.6559 129.301 98.2653 129.736 96.8748C130.717 93.7392 130.989 91.8852 130.989 88.2861C130.989 85.3687 131.043 84.9052 131.67 83.7055C132.051 82.942 132.405 82.3422 132.46 82.3422C132.514 82.3422 133.031 82.8057 133.603 83.4056C134.584 84.3599 134.856 84.4689 136.98 84.7688C138.26 84.9324 139.622 85.1506 140.057 85.2324C140.548 85.3414 140.793 85.2596 140.793 85.0142C140.793 84.6325 140.112 83.2965 139.349 82.2604C138.859 81.5788 137.525 76.2892 137.525 75.035C137.525 73.9989 138.206 72.6902 139.513 71.2178C140.711 69.8818 142.781 66.5827 144.17 63.8561C144.687 62.8473 145.068 60.9932 145.831 56.1127C146.375 52.5681 147.111 48.5874 147.465 47.2786C148.391 43.9795 148.935 35.5271 148.472 31.7917C147.955 27.7019 146.593 22.167 145.586 20.0403C143.407 15.4869 136.844 4.88057 135.782 4.19893C134.093 3.08104 131.016 2.07221 125.815 0.899785C121.839 1.98819e-05 119.687 -0.0545114 113.969 0.518067Z" fill="#665C54"/>
</g>
<defs>
<clipPath id="clip0_24_2459">
<rect width="247" height="349" fill="white"/>
</clipPath>
</defs>
</svg>
