<svg width="116" height="115" viewBox="0 0 116 115" fill="none" xmlns="http://www.w3.org/2000/svg">
<path d="M81.9991 100.601L34.0824 100.647C23.5408 100.656 14.9086 92.0408 14.8966 81.4991L14.8511 33.5824C14.8415 23.0408 23.4569 14.4086 33.9986 14.3966L81.9152 14.3511C92.4569 14.3415 101.089 22.9569 101.101 33.4986L101.147 81.4152C101.159 91.9593 92.5408 100.591 81.9991 100.601Z" fill="url(#paint0_radial_20_86)"/>
<path d="M81.9991 100.601L34.0824 100.647C23.5408 100.656 14.9086 92.0408 14.8966 81.4991L14.8511 33.5824C14.8415 23.0408 23.4569 14.4086 33.9986 14.3966L81.9152 14.3511C92.4569 14.3415 101.089 22.9569 101.101 33.4986L101.147 81.4152C101.159 91.9593 92.5408 100.591 81.9991 100.601Z" fill="url(#paint1_radial_20_86)"/>
<path d="M58.0001 74.2708C48.7546 74.2708 41.2292 66.7479 41.2292 57.5C41.2292 48.252 48.7546 40.7291 58.0001 40.7291C67.2456 40.7291 74.7709 48.252 74.7709 57.5C74.7709 66.7479 67.2456 74.2708 58.0001 74.2708ZM58.0001 45.5208C51.3948 45.5208 46.0209 50.8946 46.0209 57.5C46.0209 64.1053 51.3948 69.4791 58.0001 69.4791C64.6054 69.4791 69.9792 64.1053 69.9792 57.5C69.9792 50.8946 64.6054 45.5208 58.0001 45.5208Z" fill="white"/>
<path d="M75.9688 43.125C77.9535 43.125 79.5625 41.516 79.5625 39.5312C79.5625 37.5465 77.9535 35.9375 75.9688 35.9375C73.984 35.9375 72.375 37.5465 72.375 39.5312C72.375 41.516 73.984 43.125 75.9688 43.125Z" fill="white"/>
<path d="M72.3751 88.6458H43.6251C34.3796 88.6458 26.8542 81.1229 26.8542 71.8749V43.125C26.8542 33.877 34.3796 26.3541 43.6251 26.3541H72.3751C81.6206 26.3541 89.1459 33.877 89.1459 43.125V71.8749C89.1459 81.1229 81.6206 88.6458 72.3751 88.6458ZM43.6251 31.1458C37.0198 31.1458 31.6459 36.5196 31.6459 43.125V71.8749C31.6459 78.4803 37.0198 83.8541 43.6251 83.8541H72.3751C78.9804 83.8541 84.3542 78.4803 84.3542 71.8749V43.125C84.3542 36.5196 78.9804 31.1458 72.3751 31.1458H43.6251Z" fill="white"/>
<defs>
<radialGradient id="paint0_radial_20_86" cx="0" cy="0" r="1" gradientUnits="userSpaceOnUse" gradientTransform="translate(46.9313 100.709) scale(107.571)">
<stop stop-color="#FFDD55"/>
<stop offset="0.328" stop-color="#FF543F"/>
<stop offset="0.348" stop-color="#FC5245"/>
<stop offset="0.504" stop-color="#E64771"/>
<stop offset="0.643" stop-color="#D53E91"/>
<stop offset="0.761" stop-color="#CC39A4"/>
<stop offset="0.841" stop-color="#C837AB"/>
</radialGradient>
<radialGradient id="paint1_radial_20_86" cx="0" cy="0" r="1" gradientUnits="userSpaceOnUse" gradientTransform="translate(28.7373 13.2737) scale(71.427 47.5918)">
<stop stop-color="#4168C9"/>
<stop offset="0.999" stop-color="#4168C9" stop-opacity="0"/>
</radialGradient>
</defs>
</svg>
