<svg width="115" height="115" viewBox="0 0 115 115" fill="none" xmlns="http://www.w3.org/2000/svg">
<path d="M100.625 88.6458C100.625 95.2631 95.2631 100.625 88.6458 100.625H26.3542C19.7393 100.625 14.375 95.2631 14.375 88.6458V26.3542C14.375 19.7369 19.7393 14.375 26.3542 14.375H88.6458C95.2631 14.375 100.625 19.7369 100.625 26.3542V88.6458Z" fill="#0288D1"/>
<path d="M28.75 45.5208H40.7292V86.25H28.75V45.5208ZM34.7036 40.7292H34.6366C31.062 40.7292 28.75 38.065 28.75 34.7372C28.75 31.3375 31.1339 28.75 34.7731 28.75C38.4172 28.75 40.6621 31.3375 40.7292 34.7372C40.7292 38.0626 38.4172 40.7292 34.7036 40.7292ZM86.25 86.25H74.2708V64.4503C74.2708 59.1843 71.3359 55.5905 66.6233 55.5905C63.0272 55.5905 61.0818 58.0151 60.1378 60.3582C59.7928 61.1968 59.8958 63.5159 59.8958 64.6875V86.25H47.9167V45.5208H59.8958V51.7883C61.6232 49.1146 64.3281 45.5208 71.2473 45.5208C79.8196 45.5208 86.2476 50.9115 86.2476 62.9481L86.25 86.25Z" fill="white"/>
</svg>
