<svg width="116" height="115" viewBox="0 0 116 115" fill="none" xmlns="http://www.w3.org/2000/svg">
<path d="M100.725 29.7778C97.5555 31.1818 94.1462 32.1185 90.5501 32.5618C94.2061 30.3911 97.0189 26.9292 98.339 22.8395C94.9177 24.8448 91.1275 26.3182 87.0953 27.0945C83.8753 23.6804 79.2825 21.5625 74.1938 21.5625C64.4188 21.5625 56.4957 29.416 56.4957 39.1C56.4957 40.4704 56.6563 41.8049 56.9581 43.101C42.2525 42.3631 29.2096 35.3721 20.484 24.7633C18.9506 27.3556 18.0881 30.3911 18.0881 33.5944C18.0881 39.6822 21.2051 45.0417 25.9584 48.1994C23.0571 48.1107 20.3258 47.3033 17.9348 46.0096C17.9348 46.0623 17.9348 46.1414 17.9348 46.2156C17.9348 54.7232 24.037 61.8077 32.1253 63.4201C30.6471 63.825 29.085 64.0502 27.475 64.0502C26.3322 64.0502 25.2181 63.9208 24.14 63.7268C26.3921 70.6795 32.9255 75.761 40.6665 75.912C34.6098 80.6078 26.9815 83.4205 18.6871 83.4205C17.2544 83.4205 15.8528 83.3391 14.468 83.1714C22.3048 88.1331 31.6102 91.0417 41.5984 91.0417C74.1458 91.0417 91.9517 64.3138 91.9517 41.1269C91.9517 40.3674 91.9277 39.6103 91.8918 38.8628C95.3657 36.4095 98.3605 33.3141 100.725 29.7778Z" fill="#03A9F4"/>
</svg>
